<svg height="17" width="24" xmlns="http://www.w3.org/2000/svg"><path d="m23.641 13.194a5.263 5.263 0 0 1 -1.049 1.816 4.745 4.745 0 0 1 -1.695 1.202c-.671.288-1.434.432-2.288.432-.862 0-1.63-.144-2.304-.432a4.787 4.787 0 0 1 -1.706-1.202 5.21 5.21 0 0 1 -1.054-1.816 6.972 6.972 0 0 1 -.36-2.284v-.218c0-.819.12-1.577.36-2.274a5.229 5.229 0 0 1 1.054-1.816 4.88 4.88 0 0 1 1.695-1.207c.668-.291 1.432-.437 2.294-.437.861 0 1.627.146 2.298.437a4.853 4.853 0 0 1 1.7 1.207 5.231 5.231 0 0 1 1.055 1.816c.24.697.36 1.455.36 2.274v.218c0 .826-.12 1.587-.36 2.284zm-2.596-2.502c0-.458-.046-.892-.138-1.301a3.431 3.431 0 0 0 -.429-1.082 2.142 2.142 0 0 0 -.757-.739c-.311-.181-.689-.271-1.133-.271-.438 0-.813.09-1.123.271-.311.18-.565.426-.763.739a3.367 3.367 0 0 0 -.434 1.082 5.918 5.918 0 0 0 -.138 1.301v.218c0 .472.046.914.138 1.327.091.413.236.774.434 1.082.198.309.454.553.768.734.314.18.694.27 1.139.27.43 0 .801-.09 1.112-.27a2.17 2.17 0 0 0 .757-.734c.195-.308.338-.669.429-1.082.092-.413.138-.855.138-1.327zm1.144-7.815c-.127.118-.279.21-.455.276a1.655 1.655 0 0 1 -.583.098c-.212 0-.406-.032-.583-.098a1.364 1.364 0 0 1 -.455-.276 1.268 1.268 0 0 1 -.297-.416 1.284 1.284 0 0 1 -.106-.521 1.218 1.218 0 0 1 .403-.921 1.42 1.42 0 0 1 .455-.27c.177-.066.371-.099.583-.099s.406.033.583.099c.176.066.328.156.455.27a1.218 1.218 0 0 1 .403.921c0 .188-.036.361-.106.521-.071.159-.17.298-.297.416zm-5.085-.016a1.404 1.404 0 0 1 -.455.271 1.655 1.655 0 0 1 -.583.099 1.65 1.65 0 0 1 -.582-.099 1.398 1.398 0 0 1 -.456-.271 1.236 1.236 0 0 1 -.402-.921 1.243 1.243 0 0 1 .402-.926c.127-.118.279-.21.456-.276.176-.065.371-.099.582-.099.212 0 .406.034.583.099.176.066.328.158.455.276a1.254 1.254 0 0 1 .403.926 1.236 1.236 0 0 1 -.403.921zm-8.003 13.133c-.455.19-.965.345-1.53.463a8.984 8.984 0 0 1 -1.822.176c-.876 0-1.667-.152-2.373-.457a5.011 5.011 0 0 1 -1.812-1.322c-.501-.576-.888-1.281-1.16-2.118-.272-.835-.408-1.784-.408-2.846v-2.06c0-1.061.143-2.01.429-2.846s.682-1.545 1.187-2.128a5.075 5.075 0 0 1 1.78-1.332 5.367 5.367 0 0 1 2.219-.458c.868 0 1.626.108 2.272.323s1.192.525 1.637.931.792.9 1.043 1.483.415 1.238.493 1.967h-2.903c-.099-.777-.337-1.362-.715-1.754s-.962-.588-1.753-.588a2.06 2.06 0 0 0 -1.059.286c-.325.191-.608.47-.848.838s-.431.824-.572 1.369c-.141.544-.212 1.174-.212 1.888v2.081c.007 1.416.247 2.5.721 3.252.473.753 1.197 1.133 2.171 1.14.233 0 .463-.018.689-.052.226-.035.438-.084.635-.146.198-.062.373-.134.525-.213.152-.08.266-.165.344-.255l.011-2.747h-2.553v-2.186h5.519l.01 5.973c-.19.229-.452.462-.784.698a6.156 6.156 0 0 1 -1.181.64z" fill="#8bc1e6" fill-rule="evenodd"/></svg>