<svg xmlns="http://www.w3.org/2000/svg" width="20" height="21">
    <path fill="#8BC1E6" fill-rule="evenodd" d="M18.66 5.619a9.951 9.951 0 0 0-3.639-3.641C13.488 1.083 11.815.636 10 .636c-1.814 0-3.488.447-5.02 1.342a9.954 9.954 0 0 0-3.64 3.641C.446 7.152-.001 8.826-.001 10.641c0 1.815.447 3.489 1.341 5.022a9.962 9.962 0 0 0 3.64 3.641c1.532.894 3.206 1.342 5.02 1.342 1.815 0 3.488-.448 5.02-1.342a9.954 9.954 0 0 0 3.64-3.641c.894-1.533 1.341-3.207 1.341-5.022 0-1.815-.447-3.49-1.341-5.022zm-7.409 10.286c-.087-.104-.117-.191-.091-.261-.009.043-.039.083-.091.117a1.26 1.26 0 0 0-.235-.195 1.21 1.21 0 0 1-.234-.196l-.072-.111-.117-.188a1.307 1.307 0 0 1-.104-.202c-.022-.057-.023-.089-.006-.098-.165.07-.404.022-.717-.143-.06-.035-.152-.126-.273-.274-.122-.147-.248-.212-.378-.195a2.197 2.197 0 0 0-.176.045.67.67 0 0 1-.188.033.616.616 0 0 1-.209-.052 1.676 1.676 0 0 1-.28-.15 1.787 1.787 0 0 0-.241-.137l-.169-.091-.208-.104a.629.629 0 0 1-.163-.124.41.41 0 0 1-.111-.176 2.57 2.57 0 0 1-.065-.312.984.984 0 0 0-.104-.339 1.164 1.164 0 0 0-.221-.26c-.096-.087-.183-.131-.261-.131.07 0 .07-.058 0-.176a1.328 1.328 0 0 0-.182-.254c-.018-.017-.07-.074-.157-.169-.086-.096-.16-.178-.221-.248a1.02 1.02 0 0 1-.156-.241c-.044-.091-.052-.167-.026-.228.008-.009 0-.022-.026-.039a.67.67 0 0 0-.098-.052 2.222 2.222 0 0 0-.111-.046.249.249 0 0 0-.078-.019.975.975 0 0 1 .059.189.762.762 0 0 0 .071.202c.018.034.092.161.222.378.226.364.33.634.313.807-.053.018-.087.009-.105-.026a.49.49 0 0 1-.039-.143.849.849 0 0 0-.026-.13c-.026-.052-.093-.109-.202-.17-.108-.06-.176-.121-.202-.182a.06.06 0 0 0 .033-.013.06.06 0 0 1 .033-.013c.008-.078-.037-.178-.137-.3-.1-.121-.141-.208-.124-.26-.069-.052-.13-.154-.182-.306a1.194 1.194 0 0 0-.13-.294.545.545 0 0 0-.131-.136 2.343 2.343 0 0 0-.195-.13 7.53 7.53 0 0 1-.156-.098.51.51 0 0 1-.104-.117c-.287-.348-.374-.534-.261-.561-.113.027-.206-.058-.28-.254-.074-.195-.098-.345-.072-.449l-.026-.013c.009-.035.014-.137.014-.306 0-.17.011-.324.032-.463.022-.139.063-.208.124-.208-.061.008-.106-.046-.137-.163-.03-.117-.032-.198-.006-.241.008-.026.047-.009.117.052a.72.72 0 0 1 .117.117c.113-.061.156-.139.13-.234-.017-.035-.108-.126-.273-.274-.374-.243-.565-.36-.573-.352.052-.095.039-.178-.039-.247-.087.052-.137.065-.15.039a.509.509 0 0 1-.033-.143c-.008-.07-.03-.109-.065-.118-.043-.008-.095-.043-.156-.104a8.228 8.228 0 0 1 3.06-2.892c.052-.009.148-.013.287-.013a.541.541 0 0 1 .195.065c.061.035.124.083.189.143.065.061.115.105.149.131.018-.053-.004-.131-.065-.235.018-.052.113-.104.287-.156.199-.026.33-.022.391.013a3.427 3.427 0 0 0-.261-.326l-.065.065c-.07-.061-.252-.03-.547.091a6.37 6.37 0 0 0-.13.072c-.07.039-.126.067-.169.084a.313.313 0 0 1-.157.013 7.45 7.45 0 0 1 1.224-.534c.026.018.07.055.131.111.06.056.108.098.143.124-.026-.018-.044-.009-.052.026-.035.104-.035.191 0 .26a.243.243 0 0 0 .175.105.974.974 0 0 0 .267-.014c.105-.017.174-.026.209-.026l.13.014c.278.026.386 0 .326-.079a.859.859 0 0 1 .091.215.567.567 0 0 0 .117.228c.043-.035.052-.095.026-.182s-.026-.148 0-.182c.009-.018.035-.035.078-.053l.15-.058c.056-.022.093-.037.111-.046.052-.035.017-.095-.105-.182a.775.775 0 0 0-.11-.039.962.962 0 0 1-.287-.124c-.047-.03-.069-.065-.065-.104a.368.368 0 0 1 .072-.15c.052-.043.137-.061.254-.052a.65.65 0 0 1 .267.065c.234.13.269.248.104.352a.92.92 0 0 1 .313.104c.121.061.169.126.143.195.069-.13.139-.195.208-.195.044.009.085.067.124.176.039.108.063.167.071.176.07.095.139.117.209.065.069-.052.141-.128.215-.228.074-.1.115-.146.123-.137-.086-.034-.095-.069-.026-.104.13-.078.248-.1.352-.065a.476.476 0 0 1 .104.117c.078.157.065.23-.039.221.078.07.11.157.098.261-.013.104-.081.152-.202.143a.445.445 0 0 1-.189-.065.588.588 0 0 0-.189-.071c-.044-.005-.105.019-.183.071a1.74 1.74 0 0 0-.136.222 1.025 1.025 0 0 1-.15.221c-.13.13-.348.178-.652.143.027 0 .024.027-.006.079-.031.052-.072.11-.124.175a1.676 1.676 0 0 1-.091.111.667.667 0 0 0-.156.3c0 .017-.005.076-.013.176a.662.662 0 0 1-.052.228c.104-.026.186.026.247.156.052.122.052.187 0 .196.287-.044.538-.026.756.052.312.113.49.226.534.338.051-.078.177-.082.377-.013.078.044.147.174.209.391.034.13.093.243.175.339.083.095.172.121.268.078l.038-.026c.035-.017.063-.033.085-.046a.47.47 0 0 0 .071-.052c.027-.021.042-.041.046-.058.004-.018-.002-.035-.019-.053a.464.464 0 0 1-.137-.214.275.275 0 0 1 .02-.241.867.867 0 0 1 .208-.157c.113-.069.182-.139.208-.208.035-.113-.008-.207-.13-.281-.121-.073-.182-.141-.182-.201 0-.044.028-.096.084-.157.057-.061.081-.117.072-.169A.632.632 0 0 0 12 4.785a.835.835 0 0 1-.052-.183c-.005-.039.015-.084.058-.136.06-.035.204-.033.43.006.225.039.373.081.442.124.027.017.083.043.17.078.087.035.163.072.228.111.065.039.102.076.11.11h-.065a.315.315 0 0 1 .111.183c.013.07-.019.122-.097.156a.428.428 0 0 1 .208.039c.139.052.143.1.013.144a.722.722 0 0 1 .11-.026.31.31 0 0 0 .111-.039.384.384 0 0 0 .065-.046.191.191 0 0 1 .059-.039.404.404 0 0 1 .058-.013.109.109 0 0 1 .078.019c.009 0 .028-.021.059-.065.03-.043.063-.086.097-.13.035-.043.065-.065.092-.065.025 0 .049.011.071.032a.275.275 0 0 1 .052.072l.039.085.032.071a.353.353 0 0 0 .124.137.353.353 0 0 1 .124.137c.009.026.026.091.052.195a.429.429 0 0 0 .104.215.505.505 0 0 0 .195.098c.018.009.057.004.117-.013a.315.315 0 0 1 .15-.013c.039.009.059.043.059.104.052-.052.078-.087.078-.104a.555.555 0 0 0 .084.274c.048.069.124.099.228.091l-.026.286c-.026.044-.091.076-.195.098a.695.695 0 0 0-.196.059.854.854 0 0 0-.189.156c-.099.096-.14.152-.123.169-.148-.165-.369-.213-.664-.143-.33.052-.556.104-.677.156a.949.949 0 0 0-.287.196.39.39 0 0 0-.045.091c-.022.052-.044.1-.065.143-.022.044-.041.065-.059.065.053-.008.111-.05.176-.123a.716.716 0 0 1 .124-.124c.225-.148.412-.2.56-.155.191.052.222.121.091.208-.017.017-.063.024-.136.02a.45.45 0 0 0-.15.006.652.652 0 0 1 .195.072c.052.03.065.071.039.123.139.079.165.165.079.261a.47.47 0 0 1-.404.143c.026 0 .026.018 0 .052l-.222.144c-.017.008-.073.03-.169.065a.432.432 0 0 0-.195.117.261.261 0 0 0-.039.157.667.667 0 0 1-.014.156c-.008.035-.043.043-.103.026-.027.052-.107.093-.241.124-.135.03-.224.076-.267.136.052.07.047.139-.013.209-.105.087-.196.078-.274-.026-.043.017-.076.061-.098.13-.021.07-.054.117-.097.143.061.096.052.166-.026.209.009 0 .028.009.058.026a.87.87 0 0 1 .098.065c.035.026.056.039.065.039-.035.078-.082.117-.143.117.052.139-.013.291-.195.456a.604.604 0 0 1-.163.105 2.613 2.613 0 0 1-.202.084.397.397 0 0 0-.104.046.867.867 0 0 0-.196.241.279.279 0 0 0-.019.241c.03.078.11.13.241.156l.012.104v.235l.014.104a1.381 1.381 0 0 1 .019.346c-.004.073-.024.114-.058.123-.035.009-.083 0-.143-.026-.07-.035-.153-.226-.248-.573a.882.882 0 0 0-.157-.313.382.382 0 0 1-.11.085c-.03.013-.052.015-.065.006a.802.802 0 0 1-.072-.058.852.852 0 0 0-.091-.072.704.704 0 0 0-.228-.065c-.108-.017-.176-.039-.201-.065-.209.157-.335.117-.378-.117-.018.043-.016.102.006.176s.033.115.033.124c-.061.113-.156.121-.287.025-.052-.051-.171-.058-.358-.019-.187.039-.31.046-.371.019.009 0 .026.013.052.04.026.017.044.03.052.039a.178.178 0 0 1-.039.078c-.017.017-.035.024-.052.019a.146.146 0 0 0-.059 0 .247.247 0 0 0-.058.02.824.824 0 0 0-.131.136.625.625 0 0 1-.117.124.866.866 0 0 1 .072.319 4.553 4.553 0 0 1-.039.326 2.382 2.382 0 0 0-.033.345c0 .139.041.3.124.482.082.183.18.308.293.378.061.035.165.056.312.065.148.009.252 0 .313-.026a.33.33 0 0 0 .117-.091.44.44 0 0 0 .065-.15l.039-.137c.061-.165.174-.251.339-.26.104-.009.18.002.228.032.048.031.067.072.058.124a.626.626 0 0 1-.052.163 2.897 2.897 0 0 1-.097.189.71.71 0 0 0-.071.156c-.018.07-.033.167-.046.294a1.555 1.555 0 0 1-.033.228.783.783 0 0 0 .195.013c0-.018.007-.046.02-.085a.392.392 0 0 0 .02-.071c.043.069.112.108.208.117.095.008.165-.026.208-.105.018.026.07.092.157.196.087.104.135.191.143.261.009.034.026.091.052.169.026.078.035.133.026.163-.008.03-.052.046-.13.046-.035 0-.056.013-.065.039a.176.176 0 0 0 0 .097c.009.039.02.076.032.111.014.035.031.072.052.111a.236.236 0 0 1 .033.071c.156.287.369.365.638.235 0 .251-.061.39-.182.416-.069.018-.147-.026-.234-.13zm.195 2.943a.981.981 0 0 1-.025-.208c-.009-.07.021-.163.091-.28.069-.117.104-.207.104-.267-.139-.035-.191-.148-.157-.339.017-.13.143-.304.378-.521.165-.148.217-.356.156-.626a3.575 3.575 0 0 1-.065-.494 4.55 4.55 0 0 0-.052-.457c0 .026.041.05.124.072.082.022.132.05.149.084a.723.723 0 0 0 .065-.143.699.699 0 0 1 .078-.156.46.46 0 0 1 .111-.098c.057-.039.094-.063.111-.071.017-.009.056-.037.117-.085.061-.048.11-.085.15-.111a.435.435 0 0 1 .156-.058c.065-.013.111.006.137.058.043.053.035.133-.026.242-.061.108-.061.184 0 .228a1.14 1.14 0 0 0 .026-.17.313.313 0 0 1 .078-.196.296.296 0 0 1 .15-.09.187.187 0 0 1 .13.019c.039.021.084.052.136.091.052.039.1.063.143.072.131.043.287.139.469.286-.008-.009-.008-.019 0-.032a.148.148 0 0 1 .052-.04.61.61 0 0 0 .072-.039.355.355 0 0 1 .071-.032l.04-.013c.06 0 .104-.004.13-.013.025-.009.063 0 .11.026a.857.857 0 0 1 .098.059l.091.071c.043.035.074.061.091.078l.143.091.163.104a.343.343 0 0 1 .104.117c.03.053.041.109.033.17.052.009.156.043.312.104a.47.47 0 0 0 .163.046c.083.013.137.032.163.058-1.258 1.33-2.782 2.15-4.57 2.463z"/>
</svg>
